# xmcd CD database file generated by Grip 3.0.0
# 
# Track frame offsets:
#       150
#       18592
#       34364
#       48179
#       76919
#       90041
#       110226
#       127430
#       138952
#       152924
#       168242
# 
# Disc length: 2425 seconds
# 
# Revision: 0
# Processed by: cddbd v1.4PL0 Copyright (c) Steve Scherf et al.
# Submitted via: Grip 3.0.0
# 
DISCID=8c09770b
DTITLE=L'Orchestre de ContreBasses - Transes Formations
DYEAR=2000
DGENRE=Jazz
TTITLE0=Father Moqueur
TTITLE1=Le 12 juillet
TTITLE2=Ego
TTITLE3=Les déjantés
TTITLE4=Fonque
TTITLE5=Les fous de bassan
TTITLE6=Messes basses - Les matines
TTITLE7=Messes basses - Sextes
TTITLE8=Messes basses - Nones
TTITLE9=Messes basses - Les vêpres
TTITLE10=Messes basses - Complies
EXTD=
EXTT0=
EXTT1=
EXTT2=
EXTT3=
EXTT4=
EXTT5=
EXTT6=
EXTT7=
EXTT8=
EXTT9=
EXTT10=
PLAYORDER=
